<svg width="87" height="24" viewBox="0 0 87 24" fill="none" xmlns="http://www.w3.org/2000/svg">
<path d="M0.464 23V0.664H15.664V4.984H5.328V9.56H14.192V13.848H5.328V18.68H15.664V23H0.464ZM19.1335 15.544V10.936H28.6375V15.544H19.1335Z" fill="#021526"/>
<path d="M32.8078 0.664H41.2238C42.6958 0.664 44.0398 0.898666 45.2558 1.368C46.4718 1.83733 47.5064 2.54133 48.3598 3.48C49.2131 4.39733 49.8744 5.56 50.3438 6.968C50.8131 8.35467 51.0478 9.976 51.0478 11.832C51.0478 13.688 50.8131 15.32 50.3438 16.728C49.8744 18.1147 49.2131 19.2773 48.3598 20.216C47.5064 21.1333 46.4718 21.8267 45.2558 22.296C44.0398 22.7653 42.6958 23 41.2238 23H32.8078V0.664ZM41.2238 18.68C42.6744 18.68 43.8158 18.2747 44.6478 17.464C45.4798 16.6533 45.8958 15.352 45.8958 13.56V10.104C45.8958 8.312 45.4798 7.01067 44.6478 6.2C43.8158 5.38933 42.6744 4.984 41.2238 4.984H37.6718V18.68H41.2238ZM61.6803 23.384C60.4429 23.384 59.3336 23.1813 58.3523 22.776C57.3923 22.3707 56.5709 21.784 55.8883 21.016C55.2269 20.248 54.7149 19.32 54.3523 18.232C53.9896 17.144 53.8083 15.928 53.8083 14.584C53.8083 13.24 53.9896 12.024 54.3523 10.936C54.7149 9.848 55.2269 8.93067 55.8883 8.184C56.5709 7.416 57.3923 6.82933 58.3523 6.424C59.3336 6.01867 60.4429 5.816 61.6803 5.816C62.9176 5.816 64.0163 6.01867 64.9763 6.424C65.9576 6.82933 66.7789 7.416 67.4403 8.184C68.1229 8.93067 68.6456 9.848 69.0083 10.936C69.3709 12.024 69.5522 13.24 69.5522 14.584C69.5522 15.928 69.3709 17.144 69.0083 18.232C68.6456 19.32 68.1229 20.248 67.4403 21.016C66.7789 21.784 65.9576 22.3707 64.9763 22.776C64.0163 23.1813 62.9176 23.384 61.6803 23.384ZM61.6803 19.64C62.6189 19.64 63.3443 19.352 63.8563 18.776C64.3683 18.2 64.6243 17.3787 64.6243 16.312V12.888C64.6243 11.8213 64.3683 11 63.8563 10.424C63.3443 9.848 62.6189 9.56 61.6803 9.56C60.7416 9.56 60.0163 9.848 59.5043 10.424C58.9923 11 58.7363 11.8213 58.7363 12.888V16.312C58.7363 17.3787 58.9923 18.2 59.5043 18.776C60.0163 19.352 60.7416 19.64 61.6803 19.64ZM79.7108 23.384C78.4521 23.384 77.3321 23.1813 76.3508 22.776C75.3694 22.3493 74.5481 21.7627 73.8868 21.016C73.2254 20.248 72.7241 19.32 72.3828 18.232C72.0414 17.144 71.8708 15.928 71.8708 14.584C71.8708 13.24 72.0414 12.0347 72.3828 10.968C72.7241 9.88 73.2254 8.952 73.8868 8.184C74.5481 7.416 75.3694 6.82933 76.3508 6.424C77.3321 6.01867 78.4521 5.816 79.7108 5.816C81.4174 5.816 82.8361 6.2 83.9668 6.968C85.1188 7.736 85.9401 8.81333 86.4308 10.2L82.5908 11.864C82.4414 11.224 82.1321 10.68 81.6628 10.232C81.1934 9.784 80.5428 9.56 79.7108 9.56C78.7508 9.56 78.0254 9.88 77.5348 10.52C77.0441 11.1387 76.7988 11.9813 76.7988 13.048V16.184C76.7988 17.2507 77.0441 18.0933 77.5348 18.712C78.0254 19.3307 78.7508 19.64 79.7108 19.64C80.5641 19.64 81.2361 19.416 81.7268 18.968C82.2388 18.4987 82.6121 17.8907 82.8468 17.144L86.5268 18.744C85.9721 20.344 85.1081 21.5173 83.9348 22.264C82.7828 23.0107 81.3748 23.384 79.7108 23.384Z" fill="#0360D9"/>
</svg>
