<svg width="200" height="40" viewBox="0 0 200 40" fill="none" xmlns="http://www.w3.org/2000/svg">
<path d="M178.163 4.26548C178.857 2.65356 181.143 2.65356 181.837 4.26548L184.938 11.4663C185.227 12.1387 185.861 12.5991 186.59 12.6667L194.397 13.3908C196.144 13.5528 196.851 15.7265 195.532 16.8848L189.642 22.0592C189.092 22.5423 188.85 23.2873 189.011 24.0015L190.735 31.6498C191.12 33.3619 189.271 34.7053 187.762 33.8092L181.021 29.8063C180.392 29.4326 179.608 29.4326 178.979 29.8063L172.238 33.8092C170.729 34.7053 168.88 33.3619 169.265 31.6498L170.989 24.0015C171.15 23.2873 170.908 22.5423 170.358 22.0592L164.468 16.8848C163.149 15.7265 163.856 13.5528 165.603 13.3908L173.41 12.6667C174.139 12.5991 174.773 12.1387 175.062 11.4663L178.163 4.26548Z" fill="#F5BF00"/>
<path d="M138.163 4.26548C138.857 2.65356 141.143 2.65356 141.837 4.26548L144.938 11.4663C145.227 12.1387 145.861 12.5991 146.59 12.6667L154.397 13.3908C156.144 13.5528 156.851 15.7265 155.532 16.8848L149.642 22.0592C149.092 22.5423 148.85 23.2873 149.011 24.0015L150.735 31.6498C151.12 33.3619 149.271 34.7053 147.762 33.8092L141.021 29.8063C140.392 29.4326 139.608 29.4326 138.979 29.8063L132.238 33.8092C130.729 34.7053 128.88 33.3619 129.265 31.6498L130.989 24.0015C131.15 23.2873 130.908 22.5423 130.358 22.0592L124.468 16.8848C123.149 15.7265 123.856 13.5528 125.603 13.3908L133.41 12.6667C134.139 12.5991 134.773 12.1387 135.062 11.4663L138.163 4.26548Z" fill="#F5BF00"/>
<path d="M98.1631 4.26548C98.8573 2.65356 101.143 2.65356 101.837 4.26548L104.938 11.4663C105.227 12.1387 105.861 12.5991 106.59 12.6667L114.397 13.3908C116.144 13.5528 116.851 15.7265 115.532 16.8848L109.642 22.0592C109.092 22.5423 108.85 23.2873 109.011 24.0015L110.735 31.6498C111.12 33.3619 109.271 34.7053 107.762 33.8092L101.021 29.8063C100.392 29.4326 99.6083 29.4326 98.9789 29.8063L92.2376 33.8092C90.7285 34.7053 88.8795 33.3619 89.2654 31.6498L90.9892 24.0015C91.1501 23.2873 90.9081 22.5423 90.3581 22.0592L84.468 16.8848C83.1494 15.7265 83.8557 13.5528 85.6032 13.3908L93.4099 12.6667C94.1388 12.5991 94.7725 12.1387 95.0621 11.4663L98.1631 4.26548Z" fill="#F5BF00"/>
<path d="M58.1631 4.26548C58.8573 2.65356 61.1427 2.65356 61.8369 4.26548L64.9379 11.4663C65.2275 12.1387 65.8612 12.5991 66.5901 12.6667L74.3968 13.3908C76.1443 13.5528 76.8506 15.7265 75.532 16.8848L69.6419 22.0592C69.0919 22.5423 68.8499 23.2873 69.0108 24.0015L70.7346 31.6498C71.1205 33.3619 69.2715 34.7053 67.7624 33.8092L61.0211 29.8063C60.3917 29.4326 59.6083 29.4326 58.9789 29.8063L52.2376 33.8092C50.7285 34.7053 48.8795 33.3619 49.2654 31.6498L50.9892 24.0015C51.1501 23.2873 50.9081 22.5423 50.3581 22.0592L44.468 16.8848C43.1494 15.7265 43.8557 13.5528 45.6032 13.3908L53.4099 12.6667C54.1388 12.5991 54.7725 12.1387 55.0621 11.4663L58.1631 4.26548Z" fill="#F5BF00"/>
<path d="M18.1631 4.26548C18.8573 2.65356 21.1427 2.65356 21.8369 4.26548L24.9379 11.4663C25.2275 12.1387 25.8612 12.5991 26.5901 12.6667L34.3968 13.3908C36.1443 13.5528 36.8506 15.7265 35.532 16.8848L29.6419 22.0592C29.0919 22.5423 28.8499 23.2873 29.0108 24.0015L30.7346 31.6498C31.1205 33.3619 29.2715 34.7053 27.7624 33.8092L21.0211 29.8063C20.3917 29.4326 19.6083 29.4326 18.9789 29.8063L12.2376 33.8092C10.7285 34.7053 8.87952 33.3619 9.26539 31.6498L10.9892 24.0015C11.1501 23.2873 10.9081 22.5423 10.3581 22.0592L4.46795 16.8848C3.14943 15.7265 3.85568 13.5528 5.60322 13.3908L13.4099 12.6667C14.1388 12.5991 14.7725 12.1387 15.0621 11.4663L18.1631 4.26548Z" fill="#F5BF00"/>
</svg>
